# Blender 5.1.2
# www.blender.org
mtllib tshcan.mtl
o tshcan
v 0.479219 1.682474 0.385356
v 0.479219 1.682474 0.431847
v 0.479219 1.409179 0.385356
v 0.479219 1.409179 0.431847
v 0.421076 1.682474 0.431847
v 0.479219 1.682474 0.431847
v 0.421076 1.682474 0.385356
v 0.479219 1.682474 0.385356
v 0.479219 1.682474 0.431847
v 0.421076 1.682474 0.431847
v 0.479219 1.409179 0.431847
v 0.421076 1.409179 0.431847
v 0.421076 1.682474 0.431847
v 0.421076 1.682474 0.385356
v 0.421076 1.409179 0.431847
v 0.421076 1.409179 0.385356
v 0.421076 1.409179 0.385356
v 0.479219 1.409179 0.385356
v 0.421076 1.409179 0.431847
v 0.479219 1.409179 0.431847
v 0.421076 1.682474 0.385356
v 0.479219 1.682474 0.385356
v 0.421076 1.409179 0.385356
v 0.479219 1.409179 0.385356
v -0.546500 1.449894 0.258584
v 0.535046 1.449894 0.258584
v -0.546500 -0.050312 0.258584
v 0.535046 -0.050312 0.258584
v 0.535046 1.449894 0.316718
v 0.535046 1.449894 0.258584
v -0.546500 1.449894 0.316718
v -0.546500 1.449894 0.258584
v 0.535046 1.449894 0.258584
v 0.535046 1.449894 0.316718
v 0.535046 -0.050312 0.258584
v 0.535046 -0.050312 0.316718
v 0.535046 1.449894 0.316718
v -0.546500 1.449894 0.316718
v 0.535046 -0.050312 0.316718
v -0.546500 -0.050312 0.316718
v -0.546500 -0.050312 0.316718
v -0.546500 -0.050312 0.258584
v 0.535046 -0.050312 0.316718
v 0.535046 -0.050312 0.258584
v -0.546500 1.449894 0.316718
v -0.546500 1.449894 0.258584
v -0.546500 -0.050312 0.316718
v -0.546500 -0.050312 0.258584
v 0.479219 1.682474 -0.426987
v 0.479219 1.682474 -0.380458
v 0.479219 1.409179 -0.426987
v 0.479219 1.409179 -0.380458
v 0.421076 1.682474 -0.380458
v 0.479219 1.682474 -0.380458
v 0.421076 1.682474 -0.426987
v 0.479219 1.682474 -0.426987
v 0.479219 1.682474 -0.380458
v 0.421076 1.682474 -0.380458
v 0.479219 1.409179 -0.380458
v 0.421076 1.409179 -0.380458
v 0.421076 1.682474 -0.380458
v 0.421076 1.682474 -0.426987
v 0.421076 1.409179 -0.380458
v 0.421076 1.409179 -0.426987
v 0.421076 1.409179 -0.426987
v 0.479219 1.409179 -0.426987
v 0.421076 1.409179 -0.380458
v 0.479219 1.409179 -0.380458
v 0.421076 1.682474 -0.426987
v 0.479219 1.682474 -0.426987
v 0.421076 1.409179 -0.426987
v 0.479219 1.409179 -0.426987
v 0.487940 1.467339 -0.467091
v 0.487940 1.467339 0.463258
v 0.487940 1.426636 -0.467091
v 0.487940 1.426636 0.463258
v -0.488935 1.467339 0.463258
v 0.487940 1.467339 0.463258
v -0.488935 1.467339 -0.467091
v 0.487940 1.467339 -0.467091
v 0.487940 1.467339 0.463258
v -0.488935 1.467339 0.463258
v 0.487940 1.426636 0.463258
v -0.488935 1.426636 0.463258
v -0.488935 1.467339 0.463258
v -0.488935 1.467339 -0.467091
v -0.488935 1.426636 0.463258
v -0.488935 1.426636 -0.467091
v -0.488935 1.426636 -0.467091
v 0.487940 1.426636 -0.467091
v -0.488935 1.426636 0.463258
v 0.487940 1.426636 0.463258
v -0.488935 1.467339 -0.467091
v 0.487940 1.467339 -0.467091
v -0.488935 1.426636 -0.467091
v 0.487940 1.426636 -0.467091
v 0.502484 1.699919 -0.446150
v 0.502484 1.699919 0.460949
v 0.502484 1.653400 -0.446150
v 0.502484 1.653400 0.460949
v -0.497656 1.699919 0.460949
v 0.502484 1.699919 0.460949
v -0.497656 1.699919 -0.446150
v 0.502484 1.699919 -0.446150
v 0.502484 1.699919 0.460949
v -0.497656 1.699919 0.460949
v 0.502484 1.653400 0.460949
v -0.497656 1.653400 0.460949
v -0.497656 1.699919 0.460949
v -0.497656 1.699919 -0.446150
v -0.497656 1.653400 0.460949
v -0.497656 1.653400 -0.446150
v -0.497656 1.653400 -0.446150
v 0.502484 1.653400 -0.446150
v -0.497656 1.653400 0.460949
v 0.502484 1.653400 0.460949
v -0.497656 1.699919 -0.446150
v 0.502484 1.699919 -0.446150
v -0.497656 1.653400 -0.446150
v 0.502484 1.653400 -0.446150
v 0.528649 1.455710 -0.536864
v 0.528649 1.455710 0.533031
v 0.528649 -0.050313 -0.536864
v 0.528649 -0.050313 0.533033
v -0.529642 1.455710 0.533031
v 0.528649 1.455710 0.533031
v -0.529642 1.455710 -0.536864
v 0.528649 1.455710 -0.536864
v 0.528649 1.455710 0.533031
v -0.529642 1.455710 0.533031
v 0.528649 -0.050313 0.533033
v -0.529642 -0.050313 0.533033
v -0.529642 1.455710 0.533031
v -0.529642 1.455710 -0.536864
v -0.529642 -0.050313 0.533033
v -0.529642 -0.050313 -0.536864
v -0.529642 -0.050313 -0.536864
v 0.528649 -0.050313 -0.536864
v -0.529642 -0.050313 0.533033
v 0.528649 -0.050313 0.533033
v -0.529642 1.455710 -0.536864
v 0.528649 1.455710 -0.536864
v -0.529642 -0.050313 -0.536864
v 0.528649 -0.050313 -0.536864
v -0.401132 1.682474 -0.426987
v -0.401132 1.682474 -0.380458
v -0.401132 1.409179 -0.426987
v -0.401132 1.409179 -0.380458
v -0.459282 1.682474 -0.380458
v -0.401132 1.682474 -0.380458
v -0.459282 1.682474 -0.426987
v -0.401132 1.682474 -0.426987
v -0.401132 1.682474 -0.380458
v -0.459282 1.682474 -0.380458
v -0.401132 1.409179 -0.380458
v -0.459282 1.409179 -0.380458
v -0.459282 1.682474 -0.380458
v -0.459282 1.682474 -0.426987
v -0.459282 1.409179 -0.380458
v -0.459282 1.409179 -0.426987
v -0.459282 1.409179 -0.426987
v -0.401132 1.409179 -0.426987
v -0.459282 1.409179 -0.380458
v -0.401132 1.409179 -0.380458
v -0.459282 1.682474 -0.426987
v -0.401132 1.682474 -0.426987
v -0.459282 1.409179 -0.426987
v -0.401132 1.409179 -0.426987
v 0.551903 1.473155 0.544672
v -0.552897 1.473155 0.544672
v 0.551903 1.426636 0.544672
v -0.552897 1.473155 0.544672
v 0.551903 1.473155 0.544672
v 0.458866 1.473155 0.422551
v 0.458866 1.473155 -0.426383
v 0.551903 1.473155 -0.548505
v -0.552897 1.473155 -0.548505
v 0.458866 1.473155 0.422551
v 0.458866 1.473155 -0.426383
v 0.458866 1.426636 0.422551
v -0.459860 1.473155 0.422551
v 0.458866 1.473155 0.422551
v -0.459860 1.426636 0.422551
v -0.459860 1.473155 0.422551
v -0.459860 1.473155 -0.426383
v -0.459860 1.473155 0.422551
v -0.459860 1.426636 -0.426383
v -0.459860 1.473155 -0.426383
v -0.552897 1.473155 0.544672
v -0.552897 1.473155 -0.548505
v -0.552897 1.426636 -0.548505
v 0.458866 1.473155 -0.426383
v -0.459860 1.473155 -0.426383
v 0.458866 1.426636 -0.426383
v -0.552897 1.473155 -0.548505
v 0.551903 1.473155 -0.548505
v 0.551903 1.426636 -0.548505
v 0.551903 1.426636 0.544672
v -0.552897 1.426636 0.544672
v 0.458866 1.426636 0.422551
v -0.552897 1.426636 0.544672
v -0.552897 1.426636 0.544672
v -0.552897 1.426636 -0.548505
v 0.551903 1.426636 -0.548505
v 0.458866 1.426636 -0.426383
v 0.458866 1.426636 -0.426383
v -0.459860 1.426636 0.422551
v -0.552897 1.426636 -0.548505
v 0.458866 1.426636 0.422551
v -0.459860 1.426636 -0.426383
v -0.459860 1.426636 0.422551
v -0.459860 1.426636 -0.426383
v 0.551903 1.426636 -0.548505
v 0.551903 1.473155 0.544672
v 0.551903 1.426636 0.544672
v 0.551903 1.473155 -0.548505
v -0.401132 1.682474 0.385356
v -0.401132 1.682474 0.431847
v -0.401132 1.409179 0.385356
v -0.401132 1.409179 0.431847
v -0.459282 1.682474 0.431847
v -0.401132 1.682474 0.431847
v -0.459282 1.682474 0.385356
v -0.401132 1.682474 0.385356
v -0.401132 1.682474 0.431847
v -0.459282 1.682474 0.431847
v -0.401132 1.409179 0.431847
v -0.459282 1.409179 0.431847
v -0.459282 1.682474 0.431847
v -0.459282 1.682474 0.385356
v -0.459282 1.409179 0.431847
v -0.459282 1.409179 0.385356
v -0.459282 1.409179 0.385356
v -0.401132 1.409179 0.385356
v -0.459282 1.409179 0.431847
v -0.401132 1.409179 0.431847
v -0.459282 1.682474 0.385356
v -0.401132 1.682474 0.385356
v -0.459282 1.409179 0.385356
v -0.401132 1.409179 0.385356
v 0.304198 1.449894 -0.542686
v 0.304198 1.449894 0.538851
v 0.304198 -0.050312 -0.542685
v 0.304198 -0.050312 0.538851
v 0.246046 1.449894 0.538851
v 0.304198 1.449894 0.538851
v 0.246046 1.449894 -0.542686
v 0.304198 1.449894 -0.542686
v 0.304198 1.449894 0.538851
v 0.246046 1.449894 0.538851
v 0.304198 -0.050312 0.538851
v 0.246046 -0.050312 0.538851
v 0.246046 1.449894 0.538851
v 0.246046 1.449894 -0.542686
v 0.246046 -0.050312 0.538851
v 0.246046 -0.050312 -0.542685
v 0.246046 -0.050312 -0.542685
v 0.304198 -0.050312 -0.542685
v 0.246046 -0.050312 0.538851
v 0.304198 -0.050312 0.538851
v 0.246046 1.449894 -0.542686
v 0.304198 1.449894 -0.542686
v 0.246046 -0.050312 -0.542685
v 0.304198 -0.050312 -0.542685
v -0.275539 1.449894 -0.542686
v -0.275539 1.449894 0.538851
v -0.275539 -0.050312 -0.542685
v -0.275539 -0.050312 0.538851
v -0.333681 1.449894 0.538851
v -0.275539 1.449894 0.538851
v -0.333681 1.449894 -0.542686
v -0.275539 1.449894 -0.542686
v -0.275539 1.449894 0.538851
v -0.333681 1.449894 0.538851
v -0.275539 -0.050312 0.538851
v -0.333681 -0.050312 0.538851
v -0.333681 1.449894 0.538851
v -0.333681 1.449894 -0.542686
v -0.333681 -0.050312 0.538851
v -0.333681 -0.050312 -0.542685
v -0.333681 -0.050312 -0.542685
v -0.275539 -0.050312 -0.542685
v -0.333681 -0.050312 0.538851
v -0.275539 -0.050312 0.538851
v -0.333681 1.449894 -0.542686
v -0.275539 1.449894 -0.542686
v -0.333681 -0.050312 -0.542685
v -0.275539 -0.050312 -0.542685
v -0.546500 1.449894 -0.320550
v 0.535046 1.449894 -0.320550
v -0.546500 -0.050312 -0.320550
v 0.535046 -0.050312 -0.320550
v 0.535046 1.449894 -0.262418
v 0.535046 1.449894 -0.320550
v -0.546500 1.449894 -0.262418
v -0.546500 1.449894 -0.320550
v 0.535046 1.449894 -0.320550
v 0.535046 1.449894 -0.262418
v 0.535046 -0.050312 -0.320550
v 0.535046 -0.050312 -0.262418
v 0.535046 1.449894 -0.262418
v -0.546500 1.449894 -0.262418
v 0.535046 -0.050312 -0.262418
v -0.546500 -0.050312 -0.262418
v -0.546500 -0.050312 -0.262418
v -0.546500 -0.050312 -0.320550
v 0.535046 -0.050312 -0.262418
v 0.535046 -0.050312 -0.320550
v -0.546500 1.449894 -0.262418
v -0.546500 1.449894 -0.320550
v -0.546500 -0.050312 -0.262418
v -0.546500 -0.050312 -0.320550
vn 1.0000 -0.0000 -0.0000
vn -0.0000 1.0000 -0.0000
vn -0.0000 -0.0000 1.0000
vn -1.0000 -0.0000 -0.0000
vn -0.0000 -1.0000 -0.0000
vn -0.0000 -0.0000 -1.0000
vt 2.010000 -0.500000
vt 2.000000 -0.500000
vt 2.010000 -0.558750
vt 2.000000 -0.558750
vt 2.012500 -0.500000
vt 2.012500 -0.510000
vt 2.000000 -0.510000
vt 2.012500 -0.558750
vt 7.482500 -4.000000
vt 7.250000 -4.000000
vt 7.482500 -4.322500
vt 7.250000 -4.322500
vt 7.262500 -4.000000
vt 7.262500 -4.232500
vt 7.250000 -4.232500
vt 7.262500 -4.322500
vt 1.510000 0.000000
vt 1.500000 0.000000
vt 1.510000 -0.058750
vt 1.500000 -0.058750
vt 1.512500 0.000000
vt 1.512500 -0.010000
vt 1.500000 -0.010000
vt 1.512500 -0.058750
vt 0.945000 -4.500000
vt 0.750000 -4.500000
vt 0.945000 -4.510000
vt 0.750000 -4.510000
vt 0.965000 -4.500000
vt 0.965000 -4.695000
vt 0.750000 -4.695000
vt 0.965000 -4.510000
vt 3.510000 -6.000000
vt 3.500000 -6.000000
vt 3.510000 -6.058750
vt 3.500000 -6.058750
vt 3.512500 -6.000000
vt 3.512500 -6.010000
vt 3.500000 -6.010000
vt 3.512500 -6.058750
vt 0.010000 0.250000
vt 0.000000 0.250000
vt 0.010000 0.191250
vt 0.000000 0.191250
vt 0.012500 0.250000
vt 0.012500 0.240000
vt 0.000000 0.240000
vt 0.012500 0.191250
vt 0.982500 -1.250000
vt 0.750000 -1.250000
vt 0.982500 -1.572500
vt 0.750000 -1.572500
vt 0.762500 -1.250000
vt 0.762500 -1.482500
vt 0.750000 -1.482500
vt 0.762500 -1.572500
vt 0.732500 -1.250000
vt 0.500000 -1.250000
vt 0.732500 -1.572500
vt 0.500000 -1.572500
vt 0.512500 -1.250000
vt 0.512500 -1.482500
vt 0.500000 -1.482500
vt 0.512500 -1.572500
vt 6.482500 -2.000000
vt 6.250000 -2.000000
vt 6.482500 -2.322500
vt 6.250000 -2.322500
vt 6.262500 -2.000000
vt 6.262500 -2.232500
vt 6.250000 -2.232500
vt 6.262500 -2.322500
vt 0.450000 -3.000000
vt 0.250000 -3.000000
vt 0.450000 -3.008750
vt 0.250000 -3.008750
vt 0.460000 -3.000000
vt 0.460000 -3.200000
vt 0.250000 -3.200000
vt 0.460000 -3.008750
vt -0.159155 1.056260
vt -0.389155 1.056260
vt -0.159155 0.732514
vt -0.389155 0.732514
vt -0.161655 1.056260
vt -0.161655 0.826264
vt -0.389155 0.826264
vt -0.161655 0.732514
vt 13.615700 -3.583830
vt 13.378200 -3.583830
vt 13.615700 -3.593830
vt -10.639800 -15.274200
vt -10.877300 -15.274200
vt -10.857300 -15.300400
vt -10.857300 -15.482900
vt -10.877300 -15.509200
vt -10.639800 -15.509200
vt -14.356300 -3.583830
vt -14.538800 -3.583830
vt -14.356300 -3.593830
vt -10.659800 -3.583830
vt -10.857300 -3.583830
vt -10.659800 -3.593830
vt -10.659800 -15.300400
vt 17.277201 -3.583830
vt 17.094700 -3.583830
vt 17.277201 -3.593830
vt -10.659800 -15.482900
vt -14.330000 -3.583830
vt -14.565000 -3.583830
vt -14.565000 -3.593830
vt 13.595700 -3.583830
vt 13.398200 -3.583830
vt 13.595700 -3.593830
vt -10.639800 -3.583830
vt -10.877300 -3.583830
vt -10.877300 -3.593830
vt 13.615700 -15.274200
vt 13.378200 -15.274200
vt 13.595700 -15.300400
vt 13.378200 -3.593830
vt -14.330000 -3.593830
vt -10.639800 -3.593830
vt 13.615700 -15.509200
vt -14.538800 -3.593830
vt 13.595700 -15.482900
vt 13.398200 -15.300400
vt 13.378200 -15.509200
vt -10.857300 -3.593830
vt 13.398200 -15.482900
vt 17.094700 -3.593830
vt 13.398200 -3.593830
vt 17.303499 -3.593830
vt 17.068501 -3.583830
vt 17.068501 -3.593830
vt 17.303499 -3.583830
s 1
usemtl Part1Mtl.001
f 1/1/1 2/2/1 3/3/1
f 3/3/1 2/2/1 4/4/1
f 5/5/2 6/2/2 7/6/2
f 7/6/2 6/2/2 8/7/2
f 9/5/3 10/2/3 11/8/3
f 11/8/3 10/2/3 12/4/3
f 13/1/4 14/2/4 15/3/4
f 15/3/4 14/2/4 16/4/4
f 17/5/5 18/2/5 19/6/5
f 19/6/5 18/2/5 20/7/5
f 21/5/6 22/2/6 23/8/6
f 23/8/6 22/2/6 24/4/6
f 25/9/6 26/10/6 27/11/6
f 27/11/6 26/10/6 28/12/6
f 29/13/2 30/10/2 31/14/2
f 31/14/2 30/10/2 32/15/2
f 33/13/1 34/10/1 35/16/1
f 35/16/1 34/10/1 36/12/1
f 37/9/3 38/10/3 39/11/3
f 39/11/3 38/10/3 40/12/3
f 41/13/5 42/10/5 43/14/5
f 43/14/5 42/10/5 44/15/5
f 45/13/4 46/10/4 47/16/4
f 47/16/4 46/10/4 48/12/4
f 49/17/1 50/18/1 51/19/1
f 51/19/1 50/18/1 52/20/1
f 53/21/2 54/18/2 55/22/2
f 55/22/2 54/18/2 56/23/2
f 57/21/3 58/18/3 59/24/3
f 59/24/3 58/18/3 60/20/3
f 61/17/4 62/18/4 63/19/4
f 63/19/4 62/18/4 64/20/4
f 65/21/5 66/18/5 67/22/5
f 67/22/5 66/18/5 68/23/5
f 69/21/6 70/18/6 71/24/6
f 71/24/6 70/18/6 72/20/6
f 97/25/1 98/26/1 99/27/1
f 99/27/1 98/26/1 100/28/1
f 101/29/2 102/26/2 103/30/2
f 103/30/2 102/26/2 104/31/2
f 105/29/3 106/26/3 107/32/3
f 107/32/3 106/26/3 108/28/3
f 109/25/4 110/26/4 111/27/4
f 111/27/4 110/26/4 112/28/4
f 113/29/5 114/26/5 115/30/5
f 115/30/5 114/26/5 116/31/5
f 117/29/6 118/26/6 119/32/6
f 119/32/6 118/26/6 120/28/6
f 145/33/1 146/34/1 147/35/1
f 147/35/1 146/34/1 148/36/1
f 149/37/2 150/34/2 151/38/2
f 151/38/2 150/34/2 152/39/2
f 153/37/3 154/34/3 155/40/3
f 155/40/3 154/34/3 156/36/3
f 157/33/4 158/34/4 159/35/4
f 159/35/4 158/34/4 160/36/4
f 161/37/5 162/34/5 163/38/5
f 163/38/5 162/34/5 164/39/5
f 165/37/6 166/34/6 167/40/6
f 167/40/6 166/34/6 168/36/6
f 217/41/1 218/42/1 219/43/1
f 219/43/1 218/42/1 220/44/1
f 221/45/2 222/42/2 223/46/2
f 223/46/2 222/42/2 224/47/2
f 225/45/3 226/42/3 227/48/3
f 227/48/3 226/42/3 228/44/3
f 229/41/4 230/42/4 231/43/4
f 231/43/4 230/42/4 232/44/4
f 233/45/5 234/42/5 235/46/5
f 235/46/5 234/42/5 236/47/5
f 237/45/6 238/42/6 239/48/6
f 239/48/6 238/42/6 240/44/6
f 241/49/1 242/50/1 243/51/1
f 243/51/1 242/50/1 244/52/1
f 245/53/2 246/50/2 247/54/2
f 247/54/2 246/50/2 248/55/2
f 249/53/3 250/50/3 251/56/3
f 251/56/3 250/50/3 252/52/3
f 253/49/4 254/50/4 255/51/4
f 255/51/4 254/50/4 256/52/4
f 257/53/5 258/50/5 259/54/5
f 259/54/5 258/50/5 260/55/5
f 261/53/6 262/50/6 263/56/6
f 263/56/6 262/50/6 264/52/6
f 265/57/1 266/58/1 267/59/1
f 267/59/1 266/58/1 268/60/1
f 269/61/2 270/58/2 271/62/2
f 271/62/2 270/58/2 272/63/2
f 273/61/3 274/58/3 275/64/3
f 275/64/3 274/58/3 276/60/3
f 277/57/4 278/58/4 279/59/4
f 279/59/4 278/58/4 280/60/4
f 281/61/5 282/58/5 283/62/5
f 283/62/5 282/58/5 284/63/5
f 285/61/6 286/58/6 287/64/6
f 287/64/6 286/58/6 288/60/6
f 289/65/6 290/66/6 291/67/6
f 291/67/6 290/66/6 292/68/6
f 293/69/2 294/66/2 295/70/2
f 295/70/2 294/66/2 296/71/2
f 297/69/1 298/66/1 299/72/1
f 299/72/1 298/66/1 300/68/1
f 301/65/3 302/66/3 303/67/3
f 303/67/3 302/66/3 304/68/3
f 305/69/5 306/66/5 307/70/5
f 307/70/5 306/66/5 308/71/5
f 309/69/4 310/66/4 311/72/4
f 311/72/4 310/66/4 312/68/4
usemtl Part4Mtl.001
f 73/73/1 74/74/1 75/75/1
f 75/75/1 74/74/1 76/76/1
f 77/77/2 78/74/2 79/78/2
f 79/78/2 78/74/2 80/79/2
f 81/77/3 82/74/3 83/80/3
f 83/80/3 82/74/3 84/76/3
f 85/73/4 86/74/4 87/75/4
f 87/75/4 86/74/4 88/76/4
f 89/77/5 90/74/5 91/78/5
f 91/78/5 90/74/5 92/79/5
f 93/77/6 94/74/6 95/80/6
f 95/80/6 94/74/6 96/76/6
usemtl Part6Mtl
f 121/81/1 122/82/1 123/83/1
f 123/83/1 122/82/1 124/84/1
f 125/85/2 126/82/2 127/86/2
f 127/86/2 126/82/2 128/87/2
f 129/85/3 130/82/3 131/88/3
f 131/88/3 130/82/3 132/84/3
f 133/81/4 134/82/4 135/83/4
f 135/83/4 134/82/4 136/84/4
f 137/85/5 138/82/5 139/86/5
f 139/86/5 138/82/5 140/87/5
f 141/85/6 142/82/6 143/88/6
f 143/88/6 142/82/6 144/84/6
usemtl Union1Mtl.001
f 169/89/3 170/90/3 171/91/3
f 172/92/2 173/93/2 174/94/2
f 175/95/2 176/96/2 177/97/2
f 176/96/2 175/95/2 174/94/2
f 178/98/4 179/99/4 180/100/4
f 181/101/6 182/102/6 183/103/6
f 174/94/2 184/104/2 172/92/2
f 185/105/1 186/106/1 187/107/1
f 184/104/2 188/108/2 177/97/2
f 177/97/2 188/108/2 175/95/2
f 189/109/4 190/110/4 191/111/4
f 177/97/2 172/92/2 184/104/2
f 192/112/3 193/113/3 194/114/3
f 195/115/6 196/116/6 197/117/6
f 198/118/5 199/119/5 200/120/5
f 201/121/3 171/91/3 170/90/3
f 202/122/4 189/109/4 191/111/4
f 203/123/6 195/115/6 197/117/6
f 198/118/5 200/120/5 204/124/5
f 205/125/4 180/100/4 179/99/4
f 200/120/5 206/126/5 204/124/5
f 207/127/5 199/119/5 208/128/5
f 199/119/5 207/127/5 200/120/5
f 209/129/6 183/103/6 182/102/6
f 210/130/5 208/128/5 206/126/5
f 208/128/5 210/130/5 207/127/5
f 211/131/1 187/107/1 186/106/1
f 212/132/3 194/114/3 193/113/3
f 208/128/5 204/124/5 206/126/5
f 213/133/1 214/134/1 215/135/1
f 214/134/1 213/133/1 216/136/1
f 173/93/2 176/96/2 174/94/2
