# Made in Blockbench 4.8.3
mtllib 10mark.mtl

o cube
v 0.3125 1.546875 0
v 0.3125 1.546875 -0.046875
v 0.3125 0.921875 0
v 0.3125 0.921875 -0.046875
v -0.3125 1.546875 -0.046875
v -0.3125 1.546875 0
v -0.3125 0.921875 -0.046875
v -0.3125 0.921875 0
vt 0 1
vt 0.15625 1
vt 0.15625 0.84375
vt 0 0.84375
vt 0.125 0.65625
vt 0.13671875 0.65625
vt 0.13671875 0.5
vt 0.125 0.5
vt 0 0.828125
vt 0.15625 0.828125
vt 0.15625 0.671875
vt 0 0.671875
vt 0.359375 1
vt 0.37109375 1
vt 0.37109375 0.84375
vt 0.359375 0.84375
vt 0.515625 0.81640625
vt 0.359375 0.81640625
vt 0.359375 0.828125
vt 0.515625 0.828125
vt 0.515625 0.796875
vt 0.359375 0.796875
vt 0.359375 0.78515625
vt 0.515625 0.78515625
vn 0 0 -1
vn 1 0 0
vn 0 0 1
vn -1 0 0
vn 0 1 0
vn 0 -1 0
usemtl m_e84fc518-2f35-0d87-7a0c-6bd1a0f2ed86
f 4/4/1 7/3/1 5/2/1 2/1/1
f 3/8/2 4/7/2 2/6/2 1/5/2
f 8/12/3 3/11/3 1/10/3 6/9/3
f 7/16/4 8/15/4 6/14/4 5/13/4
f 6/20/5 1/19/5 2/18/5 5/17/5
f 7/24/6 4/23/6 3/22/6 8/21/6
o cylinder
v 0 -0.25 0.0625
v 0 1.25 0.0625
v 0.004096466425952405 -0.25 0.125
v 0.004096466425952405 1.25 0.125
v 0.012219307601553986 -0.25 0.12393060767172637
v 0.012219307601553986 1.25 0.12393060767172637
v 0.020133073036260996 -0.25 0.12181012061440732
v 0.020133073036260996 1.25 0.12181012061440732
v 0.027702356009375206 -0.25 0.11867482094950366
v 0.027702356009375206 1.25 0.11867482094950366
v 0.034797643990624794 -0.25 0.11457835452355125
v 0.034797643990624794 1.25 0.11457835452355125
v 0.04129753463546537 -0.25 0.10959081301285312
v 0.04129753463546537 1.25 0.10959081301285312
v 0.04709081301285312 -0.25 0.10379753463546537
v 0.04709081301285312 1.25 0.10379753463546537
v 0.05207835452355125 -0.25 0.0972976439906248
v 0.05207835452355125 1.25 0.0972976439906248
v 0.05617482094950366 -0.25 0.0902023560093752
v 0.05617482094950366 1.25 0.0902023560093752
v 0.059310120614407325 -0.25 0.082633073036261
v 0.059310120614407325 1.25 0.082633073036261
v 0.06143060767172637 -0.25 0.07471930760155399
v 0.06143060767172637 1.25 0.07471930760155399
v 0.0625 -0.25 0.0665964664259524
v 0.0625 1.25 0.0665964664259524
v 0.0625 -0.25 0.058403533574047595
v 0.0625 1.25 0.058403533574047595
v 0.06143060767172637 -0.25 0.050280692398446014
v 0.06143060767172637 1.25 0.050280692398446014
v 0.059310120614407325 -0.25 0.042366926963739004
v 0.059310120614407325 1.25 0.042366926963739004
v 0.05617482094950366 -0.25 0.034797643990624794
v 0.05617482094950366 1.25 0.034797643990624794
v 0.05207835452355125 -0.25 0.027702356009375206
v 0.05207835452355125 1.25 0.027702356009375206
v 0.04709081301285312 -0.25 0.02120246536453463
v 0.04709081301285312 1.25 0.02120246536453463
v 0.04129753463546537 -0.25 0.015409186987146883
v 0.04129753463546537 1.25 0.015409186987146883
v 0.034797643990624794 -0.25 0.010421645476448749
v 0.034797643990624794 1.25 0.010421645476448749
v 0.027702356009375206 -0.25 0.0063251790504963434
v 0.027702356009375206 1.25 0.0063251790504963434
v 0.020133073036260996 -0.25 0.0031898793855926755
v 0.020133073036260996 1.25 0.0031898793855926755
v 0.012219307601553986 -0.25 0.0010693923282736328
v 0.012219307601553986 1.25 0.0010693923282736328
v 0.004096466425952405 -0.25 0
v 0.004096466425952405 1.25 0
v -0.004096466425952405 -0.25 0
v -0.004096466425952405 1.25 0
v -0.012219307601553986 -0.25 0.0010693923282736328
v -0.012219307601553986 1.25 0.0010693923282736328
v -0.020133073036260996 -0.25 0.0031898793855926755
v -0.020133073036260996 1.25 0.0031898793855926755
v -0.027702356009375206 -0.25 0.0063251790504963434
v -0.027702356009375206 1.25 0.0063251790504963434
v -0.034797643990624794 -0.25 0.010421645476448749
v -0.034797643990624794 1.25 0.010421645476448749
v -0.04129753463546537 -0.25 0.015409186987146883
v -0.04129753463546537 1.25 0.015409186987146883
v -0.04709081301285312 -0.25 0.02120246536453463
v -0.04709081301285312 1.25 0.02120246536453463
v -0.05207835452355125 -0.25 0.027702356009375206
v -0.05207835452355125 1.25 0.027702356009375206
v -0.05617482094950366 -0.25 0.034797643990624794
v -0.05617482094950366 1.25 0.034797643990624794
v -0.059310120614407325 -0.25 0.042366926963739004
v -0.059310120614407325 1.25 0.042366926963739004
v -0.06143060767172637 -0.25 0.050280692398446014
v -0.06143060767172637 1.25 0.050280692398446014
v -0.0625 -0.25 0.058403533574047595
v -0.0625 1.25 0.058403533574047595
v -0.0625 -0.25 0.0665964664259524
v -0.0625 1.25 0.0665964664259524
v -0.06143060767172637 -0.25 0.07471930760155399
v -0.06143060767172637 1.25 0.07471930760155399
v -0.059310120614407325 -0.25 0.082633073036261
v -0.059310120614407325 1.25 0.082633073036261
v -0.05617482094950366 -0.25 0.0902023560093752
v -0.05617482094950366 1.25 0.0902023560093752
v -0.05207835452355125 -0.25 0.0972976439906248
v -0.05207835452355125 1.25 0.0972976439906248
v -0.04709081301285312 -0.25 0.10379753463546537
v -0.04709081301285312 1.25 0.10379753463546537
v -0.04129753463546537 -0.25 0.10959081301285312
v -0.04129753463546537 1.25 0.10959081301285312
v -0.034797643990624794 -0.25 0.11457835452355125
v -0.034797643990624794 1.25 0.11457835452355125
v -0.027702356009375206 -0.25 0.11867482094950366
v -0.027702356009375206 1.25 0.11867482094950366
v -0.020133073036260996 -0.25 0.12181012061440732
v -0.020133073036260996 1.25 0.12181012061440732
v -0.012219307601553986 -0.25 0.12393060767172637
v -0.012219307601553986 1.25 0.12393060767172637
v -0.004096466425952405 -0.25 0.125
v -0.004096466425952405 1.25 0.125
vt 0.3780546875 0.7653578125
vt 0.3760234375 0.765625
vt 0.375 0.75
vt 0.231248828125 0.625
vt 0.233297265625 0.625
vt 0.233297265625 1
vt 0.231248828125 1
vt 0.3760234375 0.6875
vt 0.3780546875 0.6877671875
vt 0.375 0.703125
vt 0.3800328125 0.764828125
vt 0.3780546875 0.7653578125
vt 0.375 0.75
vt 0.233297265625 0.625
vt 0.235345703125 0.625
vt 0.235345703125 1
vt 0.233297265625 1
vt 0.3780546875 0.6877671875
vt 0.3800328125 0.688296875
vt 0.375 0.703125
vt 0.381925 0.76404375
vt 0.3800328125 0.764828125
vt 0.375 0.75
vt 0.235345703125 0.625
vt 0.237394140625 0.625
vt 0.237394140625 1
vt 0.235345703125 1
vt 0.3800328125 0.688296875
vt 0.381925 0.68908125
vt 0.375 0.703125
vt 0.3837 0.7630203125
vt 0.381925 0.76404375
vt 0.375 0.75
vt 0.237394140625 0.625
vt 0.239442578125 0.625
vt 0.239442578125 1
vt 0.237394140625 1
vt 0.381925 0.68908125
vt 0.3837 0.6901046875
vt 0.375 0.703125
vt 0.385325 0.7617734375
vt 0.3837 0.7630203125
vt 0.375 0.75
vt 0.239442578125 0.625
vt 0.241489453125 0.625
vt 0.241489453125 1
vt 0.239442578125 1
vt 0.3837 0.6901046875
vt 0.385325 0.6913515625
vt 0.375 0.703125
vt 0.3867734375 0.7603249999999999
vt 0.385325 0.7617734375
vt 0.375 0.75
vt 0 0.28125
vt 0.015625 0.28125
vt 0.015625 0.65625
vt 0 0.65625
vt 0.385325 0.6913515625
vt 0.3867734375 0.6928000000000001
vt 0.375 0.703125
vt 0.3880203125 0.7586999999999999
vt 0.3867734375 0.7603249999999999
vt 0.375 0.75
vt 0.265835546875 0.625
vt 0.267883984375 0.625
vt 0.267883984375 1
vt 0.265835546875 1
vt 0.3867734375 0.6928000000000001
vt 0.3880203125 0.6944250000000001
vt 0.375 0.703125
vt 0.38904375 0.7569250000000001
vt 0.3880203125 0.7586999999999999
vt 0.375 0.75
vt 0.267883984375 0.625
vt 0.269932421875 0.625
vt 0.269932421875 1
vt 0.267883984375 1
vt 0.3880203125 0.6944250000000001
vt 0.38904375 0.6961999999999999
vt 0.375 0.703125
vt 0.389828125 0.7550328125
vt 0.38904375 0.7569250000000001
vt 0.375 0.75
vt 0.269932421875 0.625
vt 0.271980859375 0.625
vt 0.271980859375 1
vt 0.269932421875 1
vt 0.38904375 0.6961999999999999
vt 0.389828125 0.6980921875
vt 0.375 0.703125
vt 0.3903578125 0.7530546874999999
vt 0.389828125 0.7550328125
vt 0.375 0.75
vt 0.271980859375 0.625
vt 0.274029296875 0.625
vt 0.274029296875 1
vt 0.271980859375 1
vt 0.389828125 0.6980921875
vt 0.3903578125 0.7000703125000001
vt 0.375 0.703125
vt 0.390625 0.7510234375
vt 0.3903578125 0.7530546874999999
vt 0.375 0.75
vt 0.274029296875 0.625
vt 0.276077734375 0.625
vt 0.276077734375 1
vt 0.274029296875 1
vt 0.3903578125 0.7000703125000001
vt 0.390625 0.7021015625
vt 0.375 0.703125
vt 0.390625 0.7489765625
vt 0.390625 0.7510234375
vt 0.375 0.75
vt 0.276077734375 0.625
vt 0.278124609375 0.625
vt 0.278124609375 1
vt 0.276077734375 1
vt 0.390625 0.7021015625
vt 0.390625 0.7041484375
vt 0.375 0.703125
vt 0.3903578125 0.7469453125000001
vt 0.390625 0.7489765625
vt 0.375 0.75
vt 0.278124609375 0.625
vt 0.280173046875 0.625
vt 0.280173046875 1
vt 0.278124609375 1
vt 0.390625 0.7041484375
vt 0.3903578125 0.7061796874999999
vt 0.375 0.703125
vt 0.389828125 0.7449671875
vt 0.3903578125 0.7469453125000001
vt 0.375 0.75
vt 0.280173046875 0.625
vt 0.282219921875 0.625
vt 0.282219921875 1
vt 0.280173046875 1
vt 0.3903578125 0.7061796874999999
vt 0.389828125 0.7081578125
vt 0.375 0.703125
vt 0.38904375 0.7430749999999999
vt 0.389828125 0.7449671875
vt 0.375 0.75
vt 0.282219921875 0.625
vt 0.284268359375 0.625
vt 0.284268359375 1
vt 0.282219921875 1
vt 0.389828125 0.7081578125
vt 0.38904375 0.7100500000000001
vt 0.375 0.703125
vt 0.3880203125 0.7413000000000001
vt 0.38904375 0.7430749999999999
vt 0.375 0.75
vt 0.284268359375 0.625
vt 0.286316796875 0.625
vt 0.286316796875 1
vt 0.284268359375 1
vt 0.38904375 0.7100500000000001
vt 0.3880203125 0.7118249999999999
vt 0.375 0.703125
vt 0.3867734375 0.7396750000000001
vt 0.3880203125 0.7413000000000001
vt 0.375 0.75
vt 0.286316796875 0.625
vt 0.288363671875 0.625
vt 0.288363671875 1
vt 0.286316796875 1
vt 0.3880203125 0.7118249999999999
vt 0.3867734375 0.7134499999999999
vt 0.375 0.703125
vt 0.385325 0.7382265625
vt 0.3867734375 0.7396750000000001
vt 0.375 0.75
vt 0.03125 0.28125
vt 0.046875 0.28125
vt 0.046875 0.65625
vt 0.03125 0.65625
vt 0.3867734375 0.7134499999999999
vt 0.385325 0.7148984375
vt 0.375 0.703125
vt 0.3837 0.7369796875
vt 0.385325 0.7382265625
vt 0.375 0.75
vt 0.172084765625 0.625
vt 0.174133203125 0.625
vt 0.174133203125 1
vt 0.172084765625 1
vt 0.385325 0.7148984375
vt 0.3837 0.7161453125
vt 0.375 0.703125
vt 0.381925 0.73595625
vt 0.3837 0.7369796875
vt 0.375 0.75
vt 0.174133203125 0.625
vt 0.176181640625 0.625
vt 0.176181640625 1
vt 0.174133203125 1
vt 0.3837 0.7161453125
vt 0.381925 0.71716875
vt 0.375 0.703125
vt 0.3800328125 0.735171875
vt 0.381925 0.73595625
vt 0.375 0.75
vt 0.176181640625 0.625
vt 0.178230078125 0.625
vt 0.178230078125 1
vt 0.176181640625 1
vt 0.381925 0.71716875
vt 0.3800328125 0.717953125
vt 0.375 0.703125
vt 0.3780546875 0.7346421875
vt 0.3800328125 0.735171875
vt 0.375 0.75
vt 0.178230078125 0.625
vt 0.180278515625 0.625
vt 0.180278515625 1
vt 0.178230078125 1
vt 0.3800328125 0.717953125
vt 0.3780546875 0.7184828125
vt 0.375 0.703125
vt 0.3760234375 0.734375
vt 0.3780546875 0.7346421875
vt 0.375 0.75
vt 0.180278515625 0.625
vt 0.182326953125 0.625
vt 0.182326953125 1
vt 0.180278515625 1
vt 0.3780546875 0.7184828125
vt 0.3760234375 0.71875
vt 0.375 0.703125
vt 0.3739765625 0.734375
vt 0.3760234375 0.734375
vt 0.375 0.75
vt 0.182326953125 0.625
vt 0.184373828125 0.625
vt 0.184373828125 1
vt 0.182326953125 1
vt 0.3760234375 0.71875
vt 0.3739765625 0.71875
vt 0.375 0.703125
vt 0.3719453125 0.7346421875
vt 0.3739765625 0.734375
vt 0.375 0.75
vt 0.184373828125 0.625
vt 0.186422265625 0.625
vt 0.186422265625 1
vt 0.184373828125 1
vt 0.3739765625 0.71875
vt 0.3719453125 0.7184828125
vt 0.375 0.703125
vt 0.3699671875 0.735171875
vt 0.3719453125 0.7346421875
vt 0.375 0.75
vt 0.186422265625 0.625
vt 0.188470703125 0.625
vt 0.188470703125 1
vt 0.186422265625 1
vt 0.3719453125 0.7184828125
vt 0.3699671875 0.717953125
vt 0.375 0.703125
vt 0.368075 0.73595625
vt 0.3699671875 0.735171875
vt 0.375 0.75
vt 0.188470703125 0.625
vt 0.190519140625 0.625
vt 0.190519140625 1
vt 0.188470703125 1
vt 0.3699671875 0.717953125
vt 0.368075 0.71716875
vt 0.375 0.703125
vt 0.3663 0.7369796875
vt 0.368075 0.73595625
vt 0.375 0.75
vt 0.190519140625 0.625
vt 0.192567578125 0.625
vt 0.192567578125 1
vt 0.190519140625 1
vt 0.368075 0.71716875
vt 0.3663 0.7161453125
vt 0.375 0.703125
vt 0.364675 0.7382265625
vt 0.3663 0.7369796875
vt 0.375 0.75
vt 0.192567578125 0.625
vt 0.194614453125 0.625
vt 0.194614453125 1
vt 0.192567578125 1
vt 0.3663 0.7161453125
vt 0.364675 0.7148984375
vt 0.375 0.703125
vt 0.3632265625 0.7396750000000001
vt 0.364675 0.7382265625
vt 0.375 0.75
vt 0.0625 0.28125
vt 0.078125 0.28125
vt 0.078125 0.65625
vt 0.0625 0.65625
vt 0.364675 0.7148984375
vt 0.3632265625 0.7134499999999999
vt 0.375 0.703125
vt 0.3619796875 0.7413000000000001
vt 0.3632265625 0.7396750000000001
vt 0.375 0.75
vt 0.312710546875 0.625
vt 0.314758984375 0.625
vt 0.314758984375 1
vt 0.312710546875 1
vt 0.3632265625 0.7134499999999999
vt 0.3619796875 0.7118249999999999
vt 0.375 0.703125
vt 0.36095625 0.7430749999999999
vt 0.3619796875 0.7413000000000001
vt 0.375 0.75
vt 0.314758984375 0.625
vt 0.316807421875 0.625
vt 0.316807421875 1
vt 0.314758984375 1
vt 0.3619796875 0.7118249999999999
vt 0.36095625 0.7100500000000001
vt 0.375 0.703125
vt 0.360171875 0.7449671875
vt 0.36095625 0.7430749999999999
vt 0.375 0.75
vt 0.316807421875 0.625
vt 0.318855859375 0.625
vt 0.318855859375 1
vt 0.316807421875 1
vt 0.36095625 0.7100500000000001
vt 0.360171875 0.7081578125
vt 0.375 0.703125
vt 0.3596421875 0.7469453125000001
vt 0.360171875 0.7449671875
vt 0.375 0.75
vt 0.318855859375 0.625
vt 0.320904296875 0.625
vt 0.320904296875 1
vt 0.318855859375 1
vt 0.360171875 0.7081578125
vt 0.3596421875 0.7061796874999999
vt 0.375 0.703125
vt 0.359375 0.7489765625
vt 0.3596421875 0.7469453125000001
vt 0.375 0.75
vt 0.320904296875 0.625
vt 0.322952734375 0.625
vt 0.322952734375 1
vt 0.320904296875 1
vt 0.3596421875 0.7061796874999999
vt 0.359375 0.7041484375
vt 0.375 0.703125
vt 0.359375 0.7510234375
vt 0.359375 0.7489765625
vt 0.375 0.75
vt 0.322952734375 0.625
vt 0.324999609375 0.625
vt 0.324999609375 1
vt 0.322952734375 1
vt 0.359375 0.7041484375
vt 0.359375 0.7021015625
vt 0.375 0.703125
vt 0.3596421875 0.7530546874999999
vt 0.359375 0.7510234375
vt 0.375 0.75
vt 0.324999609375 0.625
vt 0.327048046875 0.625
vt 0.327048046875 1
vt 0.324999609375 1
vt 0.359375 0.7021015625
vt 0.3596421875 0.7000703125000001
vt 0.375 0.703125
vt 0.360171875 0.7550328125
vt 0.3596421875 0.7530546874999999
vt 0.375 0.75
vt 0.327048046875 0.625
vt 0.329094921875 0.625
vt 0.329094921875 1
vt 0.327048046875 1
vt 0.3596421875 0.7000703125000001
vt 0.360171875 0.6980921875
vt 0.375 0.703125
vt 0.36095625 0.7569250000000001
vt 0.360171875 0.7550328125
vt 0.375 0.75
vt 0.329094921875 0.625
vt 0.331143359375 0.625
vt 0.331143359375 1
vt 0.329094921875 1
vt 0.360171875 0.6980921875
vt 0.36095625 0.6961999999999999
vt 0.375 0.703125
vt 0.3619796875 0.7586999999999999
vt 0.36095625 0.7569250000000001
vt 0.375 0.75
vt 0.331143359375 0.625
vt 0.333191796875 0.625
vt 0.333191796875 1
vt 0.331143359375 1
vt 0.36095625 0.6961999999999999
vt 0.3619796875 0.6944250000000001
vt 0.375 0.703125
vt 0.3632265625 0.7603249999999999
vt 0.3619796875 0.7586999999999999
vt 0.375 0.75
vt 0.333191796875 0.625
vt 0.335238671875 0.625
vt 0.335238671875 1
vt 0.333191796875 1
vt 0.3619796875 0.6944250000000001
vt 0.3632265625 0.6928000000000001
vt 0.375 0.703125
vt 0.364675 0.7617734375
vt 0.3632265625 0.7603249999999999
vt 0.375 0.75
vt 0.09375 0.28125
vt 0.109375 0.28125
vt 0.109375 0.65625
vt 0.09375 0.65625
vt 0.3632265625 0.6928000000000001
vt 0.364675 0.6913515625
vt 0.375 0.703125
vt 0.3663 0.7630203125
vt 0.364675 0.7617734375
vt 0.375 0.75
vt 0.218959765625 0.625
vt 0.221008203125 0.625
vt 0.221008203125 1
vt 0.218959765625 1
vt 0.364675 0.6913515625
vt 0.3663 0.6901046875
vt 0.375 0.703125
vt 0.368075 0.76404375
vt 0.3663 0.7630203125
vt 0.375 0.75
vt 0.221008203125 0.625
vt 0.223056640625 0.625
vt 0.223056640625 1
vt 0.221008203125 1
vt 0.3663 0.6901046875
vt 0.368075 0.68908125
vt 0.375 0.703125
vt 0.3699671875 0.764828125
vt 0.368075 0.76404375
vt 0.375 0.75
vt 0.223056640625 0.625
vt 0.225105078125 0.625
vt 0.225105078125 1
vt 0.223056640625 1
vt 0.368075 0.68908125
vt 0.3699671875 0.688296875
vt 0.375 0.703125
vt 0.3719453125 0.7653578125
vt 0.3699671875 0.764828125
vt 0.375 0.75
vt 0.225105078125 0.625
vt 0.227153515625 0.625
vt 0.227153515625 1
vt 0.225105078125 1
vt 0.3699671875 0.688296875
vt 0.3719453125 0.6877671875
vt 0.375 0.703125
vt 0.3739765625 0.765625
vt 0.3719453125 0.7653578125
vt 0.375 0.75
vt 0.227153515625 0.625
vt 0.229201953125 0.625
vt 0.229201953125 1
vt 0.227153515625 1
vt 0.3719453125 0.6877671875
vt 0.3739765625 0.6875
vt 0.375 0.703125
vt 0.3760234375 0.765625
vt 0.3739765625 0.765625
vt 0.375 0.75
vt 0.229201953125 0.625
vt 0.231248828125 0.625
vt 0.231248828125 1
vt 0.229201953125 1
vt 0.3739765625 0.6875
vt 0.3760234375 0.6875
vt 0.375 0.703125
vn 0 -1 0
vn 0.1305261922200451 0 0.9914448613738113
vn 0 1 0
vn 0 -1 0
vn 0.25881904510251696 0 0.9659258262890693
vn 0 1 0
vn 0 -1 0
vn 0.3826834323650917 0 0.923879532511286
vn 0 1 0
vn 0 -1 0
vn 0.5000000000000037 0 0.8660254037844366
vn 0 1 0
vn 0 -1 0
vn 0.6087614290087201 0 0.7933533402912357
vn 0 1 0
vn 0 -1 0
vn 0.7071067811865476 0 0.7071067811865476
vn 0 1 0
vn 0 -1 0
vn 0.7933533402912357 0 0.6087614290087201
vn 0 1 0
vn 0 -1 0
vn 0.8660254037844366 0 0.5000000000000037
vn 0 1 0
vn 0 -1 0
vn 0.923879532511286 0 0.3826834323650917
vn 0 1 0
vn 0 -1 0
vn 0.9659258262890693 0 0.25881904510251696
vn 0 1 0
vn 0 -1 0
vn 0.9914448613738113 0 0.1305261922200451
vn 0 1 0
vn 0 -1 0
vn 1 0 0
vn 0 1 0
vn 0 -1 0
vn 0.9914448613738113 0 -0.1305261922200451
vn 0 1 0
vn 0 -1 0
vn 0.9659258262890693 0 -0.25881904510251696
vn 0 1 0
vn 0 -1 0
vn 0.923879532511286 0 -0.3826834323650917
vn 0 1 0
vn 0 -1 0
vn 0.8660254037844366 0 -0.5000000000000037
vn 0 1 0
vn 0 -1 0
vn 0.7933533402912357 0 -0.6087614290087201
vn 0 1 0
vn 0 -1 0
vn 0.7071067811865476 0 -0.7071067811865476
vn 0 1 0
vn 0 -1 0
vn 0.6087614290087201 0 -0.7933533402912357
vn 0 1 0
vn 0 -1 0
vn 0.5000000000000037 0 -0.8660254037844366
vn 0 1 0
vn 0 -1 0
vn 0.3826834323650917 0 -0.923879532511286
vn 0 1 0
vn 0 -1 0
vn 0.25881904510251696 0 -0.9659258262890693
vn 0 1 0
vn 0 -1 0
vn 0.1305261922200451 0 -0.9914448613738113
vn 0 1 0
vn 0 -1 0
vn 0 0 -1
vn 0 1 0
vn 0 -1 0
vn -0.1305261922200451 0 -0.9914448613738113
vn 0 1 0
vn 0 -1 0
vn -0.25881904510251696 0 -0.9659258262890693
vn 0 1 0
vn 0 -1 0
vn -0.3826834323650917 0 -0.923879532511286
vn 0 1 0
vn 0 -1 0
vn -0.5000000000000037 0 -0.8660254037844366
vn 0 1 0
vn 0 -1 0
vn -0.6087614290087201 0 -0.7933533402912357
vn 0 1 0
vn 0 -1 0
vn -0.7071067811865476 0 -0.7071067811865476
vn 0 1 0
vn 0 -1 0
vn -0.7933533402912357 0 -0.6087614290087201
vn 0 1 0
vn 0 -1 0
vn -0.8660254037844366 0 -0.5000000000000037
vn 0 1 0
vn 0 -1 0
vn -0.923879532511286 0 -0.3826834323650917
vn 0 1 0
vn 0 -1 0
vn -0.9659258262890693 0 -0.25881904510251696
vn 0 1 0
vn 0 -1 0
vn -0.9914448613738113 0 -0.1305261922200451
vn 0 1 0
vn 0 -1 0
vn -1 0 0
vn 0 1 0
vn 0 -1 0
vn -0.9914448613738113 0 0.1305261922200451
vn 0 1 0
vn 0 -1 0
vn -0.9659258262890693 0 0.25881904510251696
vn 0 1 0
vn 0 -1 0
vn -0.923879532511286 0 0.3826834323650917
vn 0 1 0
vn 0 -1 0
vn -0.8660254037844366 0 0.5000000000000037
vn 0 1 0
vn 0 -1 0
vn -0.7933533402912357 0 0.6087614290087201
vn 0 1 0
vn 0 -1 0
vn -0.7071067811865476 0 0.7071067811865476
vn 0 1 0
vn 0 -1 0
vn -0.6087614290087201 0 0.7933533402912357
vn 0 1 0
vn 0 -1 0
vn -0.5000000000000037 0 0.8660254037844366
vn 0 1 0
vn 0 -1 0
vn -0.3826834323650917 0 0.923879532511286
vn 0 1 0
vn 0 -1 0
vn -0.25881904510251696 0 0.9659258262890693
vn 0 1 0
vn 0 -1 0
vn -0.1305261922200451 0 0.9914448613738113
vn 0 1 0
vn 0 -1 0
vn 0 0 1
vn 0 1 0
usemtl m_e84fc518-2f35-0d87-7a0c-6bd1a0f2ed86
f 13/25/7 11/26/7 9/27/7
f 11/28/8 13/29/8 14/30/8 12/31/8
f 12/32/9 14/33/9 10/34/9
f 15/35/10 13/36/10 9/37/10
f 13/38/11 15/39/11 16/40/11 14/41/11
f 14/42/12 16/43/12 10/44/12
f 17/45/13 15/46/13 9/47/13
f 15/48/14 17/49/14 18/50/14 16/51/14
f 16/52/15 18/53/15 10/54/15
f 19/55/16 17/56/16 9/57/16
f 17/58/17 19/59/17 20/60/17 18/61/17
f 18/62/18 20/63/18 10/64/18
f 21/65/19 19/66/19 9/67/19
f 19/68/20 21/69/20 22/70/20 20/71/20
f 20/72/21 22/73/21 10/74/21
f 23/75/22 21/76/22 9/77/22
f 21/78/23 23/79/23 24/80/23 22/81/23
f 22/82/24 24/83/24 10/84/24
f 25/85/25 23/86/25 9/87/25
f 23/88/26 25/89/26 26/90/26 24/91/26
f 24/92/27 26/93/27 10/94/27
f 27/95/28 25/96/28 9/97/28
f 25/98/29 27/99/29 28/100/29 26/101/29
f 26/102/30 28/103/30 10/104/30
f 29/105/31 27/106/31 9/107/31
f 27/108/32 29/109/32 30/110/32 28/111/32
f 28/112/33 30/113/33 10/114/33
f 31/115/34 29/116/34 9/117/34
f 29/118/35 31/119/35 32/120/35 30/121/35
f 30/122/36 32/123/36 10/124/36
f 33/125/37 31/126/37 9/127/37
f 31/128/38 33/129/38 34/130/38 32/131/38
f 32/132/39 34/133/39 10/134/39
f 35/135/40 33/136/40 9/137/40
f 33/138/41 35/139/41 36/140/41 34/141/41
f 34/142/42 36/143/42 10/144/42
f 37/145/43 35/146/43 9/147/43
f 35/148/44 37/149/44 38/150/44 36/151/44
f 36/152/45 38/153/45 10/154/45
f 39/155/46 37/156/46 9/157/46
f 37/158/47 39/159/47 40/160/47 38/161/47
f 38/162/48 40/163/48 10/164/48
f 41/165/49 39/166/49 9/167/49
f 39/168/50 41/169/50 42/170/50 40/171/50
f 40/172/51 42/173/51 10/174/51
f 43/175/52 41/176/52 9/177/52
f 41/178/53 43/179/53 44/180/53 42/181/53
f 42/182/54 44/183/54 10/184/54
f 45/185/55 43/186/55 9/187/55
f 43/188/56 45/189/56 46/190/56 44/191/56
f 44/192/57 46/193/57 10/194/57
f 47/195/58 45/196/58 9/197/58
f 45/198/59 47/199/59 48/200/59 46/201/59
f 46/202/60 48/203/60 10/204/60
f 49/205/61 47/206/61 9/207/61
f 47/208/62 49/209/62 50/210/62 48/211/62
f 48/212/63 50/213/63 10/214/63
f 51/215/64 49/216/64 9/217/64
f 49/218/65 51/219/65 52/220/65 50/221/65
f 50/222/66 52/223/66 10/224/66
f 53/225/67 51/226/67 9/227/67
f 51/228/68 53/229/68 54/230/68 52/231/68
f 52/232/69 54/233/69 10/234/69
f 55/235/70 53/236/70 9/237/70
f 53/238/71 55/239/71 56/240/71 54/241/71
f 54/242/72 56/243/72 10/244/72
f 57/245/73 55/246/73 9/247/73
f 55/248/74 57/249/74 58/250/74 56/251/74
f 56/252/75 58/253/75 10/254/75
f 59/255/76 57/256/76 9/257/76
f 57/258/77 59/259/77 60/260/77 58/261/77
f 58/262/78 60/263/78 10/264/78
f 61/265/79 59/266/79 9/267/79
f 59/268/80 61/269/80 62/270/80 60/271/80
f 60/272/81 62/273/81 10/274/81
f 63/275/82 61/276/82 9/277/82
f 61/278/83 63/279/83 64/280/83 62/281/83
f 62/282/84 64/283/84 10/284/84
f 65/285/85 63/286/85 9/287/85
f 63/288/86 65/289/86 66/290/86 64/291/86
f 64/292/87 66/293/87 10/294/87
f 67/295/88 65/296/88 9/297/88
f 65/298/89 67/299/89 68/300/89 66/301/89
f 66/302/90 68/303/90 10/304/90
f 69/305/91 67/306/91 9/307/91
f 67/308/92 69/309/92 70/310/92 68/311/92
f 68/312/93 70/313/93 10/314/93
f 71/315/94 69/316/94 9/317/94
f 69/318/95 71/319/95 72/320/95 70/321/95
f 70/322/96 72/323/96 10/324/96
f 73/325/97 71/326/97 9/327/97
f 71/328/98 73/329/98 74/330/98 72/331/98
f 72/332/99 74/333/99 10/334/99
f 75/335/100 73/336/100 9/337/100
f 73/338/101 75/339/101 76/340/101 74/341/101
f 74/342/102 76/343/102 10/344/102
f 77/345/103 75/346/103 9/347/103
f 75/348/104 77/349/104 78/350/104 76/351/104
f 76/352/105 78/353/105 10/354/105
f 79/355/106 77/356/106 9/357/106
f 77/358/107 79/359/107 80/360/107 78/361/107
f 78/362/108 80/363/108 10/364/108
f 81/365/109 79/366/109 9/367/109
f 79/368/110 81/369/110 82/370/110 80/371/110
f 80/372/111 82/373/111 10/374/111
f 83/375/112 81/376/112 9/377/112
f 81/378/113 83/379/113 84/380/113 82/381/113
f 82/382/114 84/383/114 10/384/114
f 85/385/115 83/386/115 9/387/115
f 83/388/116 85/389/116 86/390/116 84/391/116
f 84/392/117 86/393/117 10/394/117
f 87/395/118 85/396/118 9/397/118
f 85/398/119 87/399/119 88/400/119 86/401/119
f 86/402/120 88/403/120 10/404/120
f 89/405/121 87/406/121 9/407/121
f 87/408/122 89/409/122 90/410/122 88/411/122
f 88/412/123 90/413/123 10/414/123
f 91/415/124 89/416/124 9/417/124
f 89/418/125 91/419/125 92/420/125 90/421/125
f 90/422/126 92/423/126 10/424/126
f 93/425/127 91/426/127 9/427/127
f 91/428/128 93/429/128 94/430/128 92/431/128
f 92/432/129 94/433/129 10/434/129
f 95/435/130 93/436/130 9/437/130
f 93/438/131 95/439/131 96/440/131 94/441/131
f 94/442/132 96/443/132 10/444/132
f 97/445/133 95/446/133 9/447/133
f 95/448/134 97/449/134 98/450/134 96/451/134
f 96/452/135 98/453/135 10/454/135
f 99/455/136 97/456/136 9/457/136
f 97/458/137 99/459/137 100/460/137 98/461/137
f 98/462/138 100/463/138 10/464/138
f 101/465/139 99/466/139 9/467/139
f 99/468/140 101/469/140 102/470/140 100/471/140
f 100/472/141 102/473/141 10/474/141
f 103/475/142 101/476/142 9/477/142
f 101/478/143 103/479/143 104/480/143 102/481/143
f 102/482/144 104/483/144 10/484/144
f 105/485/145 103/486/145 9/487/145
f 103/488/146 105/489/146 106/490/146 104/491/146
f 104/492/147 106/493/147 10/494/147
f 11/495/148 105/496/148 9/497/148
f 105/498/149 11/499/149 12/500/149 106/501/149
f 106/502/150 12/503/150 10/504/150